<svg xmlns="http://www.w3.org/2000/svg" xmlns:xlink="http://www.w3.org/1999/xlink" viewBox="0 0 105.93 118.7"><defs><style>.cls-1{isolation:isolate;}.cls-2{mix-blend-mode:screen;}.cls-3{fill:url(#Áåçûìÿííûé_ãðàäèåíò_104);}.cls-4{fill:url(#Áåçûìÿííûé_ãðàäèåíò_104-2);}.cls-5{fill:url(#Áåçûìÿííûé_ãðàäèåíò_104-3);}.cls-6{fill:url(#Áåçûìÿííûé_ãðàäèåíò_104-4);}</style><linearGradient id="Áåçûìÿííûé_ãðàäèåíò_104" x1="6.38" y1="59.35" x2="112.32" y2="59.35" gradientUnits="userSpaceOnUse"><stop offset="0" stop-color="#a3def9"/><stop offset="1" stop-color="#c6e9f4"/></linearGradient><linearGradient id="Áåçûìÿííûé_ãðàäèåíò_104-2" x1="19.31" y1="22.36" x2="19.31" y2="22.36" xlink:href="#Áåçûìÿííûé_ãðàäèåíò_104"/><linearGradient id="Áåçûìÿííûé_ãðàäèåíò_104-3" x1="86.62" y1="22.36" x2="86.62" y2="22.36" xlink:href="#Áåçûìÿííûé_ãðàäèåíò_104"/><linearGradient id="Áåçûìÿííûé_ãðàäèåíò_104-4" x1="50.85" y1="59.35" x2="67.85" y2="59.35" xlink:href="#Áåçûìÿííûé_ãðàäèåíò_104"/></defs><g class="cls-1"><g id="Layer_1" data-name="Layer 1"><g class="cls-2"><path class="cls-3" d="M110.74,29.67c-2.85-4.93-9.24-7.31-17.73-7.31A62.6,62.6,0,0,0,79.8,23.92C75.15,9.4,67.72,0,59.34,0S43.53,9.4,38.88,23.92a62.35,62.35,0,0,0-13.19-1.56,29.53,29.53,0,0,0-11,1.81A13.18,13.18,0,0,0,8,29.67c-4.18,7.26.24,18.4,10.47,29.68C8.19,70.63,3.77,81.77,8,89c2.86,5,9.25,7.32,17.74,7.32a62.35,62.35,0,0,0,13.19-1.56C43.53,109.3,51,118.7,59.34,118.7s15.81-9.4,20.46-23.92A62.57,62.57,0,0,0,93,96.34c8.51,0,14.9-2.39,17.75-7.32,4.19-7.25-.23-18.39-10.48-29.67C110.51,48.07,114.93,36.93,110.74,29.67Zm-85,60.08c-6.16,0-10.55-1.47-12-4-1.91-3.33.23-9.86,5.6-17.07q1.74-2.3,3.8-4.6A111.34,111.34,0,0,0,34.6,73.64a113.19,113.19,0,0,0,2.52,14.77A55,55,0,0,1,25.69,89.75ZM34,64.87c-2.24-1.81-4.35-3.66-6.31-5.52,2-1.86,4.07-3.71,6.31-5.52-.06,1.83-.11,3.66-.11,5.52S33.89,63.06,34,64.87Zm.65-19.81a113.93,113.93,0,0,0-11.54,9.58c-1.37-1.54-2.64-3.07-3.8-4.61-5.37-7.2-7.51-13.73-5.6-17.06,1.48-2.55,5.87-4,12-4a55.64,55.64,0,0,1,11.43,1.33A113.65,113.65,0,0,0,34.6,45.06Zm42.22-4.93c-1.54-1-3.1-1.93-4.72-2.87s-3.21-1.8-4.83-2.64c2.69-1,5.34-1.94,7.93-2.7C75.81,34.49,76.37,37.21,76.82,40.13ZM59.34,6.59c4.47,0,10.11,6.91,14.06,19a118.63,118.63,0,0,0-14.06,5.19,115,115,0,0,0-14-5.19C49.25,13.5,54.87,6.59,59.34,6.59ZM43.5,31.9c2.59.78,5.24,1.68,7.93,2.72Q49,35.88,46.6,37.26c-1.62.94-3.18,1.89-4.73,2.87C42.33,37.21,42.87,34.49,43.5,31.9ZM41.87,78.57c1.55,1,3.11,1.93,4.73,2.87s3.21,1.8,4.83,2.64c-2.69,1-5.34,1.94-7.93,2.72Q42.55,82.95,41.87,78.57ZM59.34,112.1c-4.47,0-10.09-6.9-14-19a115.58,115.58,0,0,0,14-5.19A115.21,115.21,0,0,0,73.4,93.13C69.45,105.2,63.81,112.1,59.34,112.1ZM75.2,86.8C72.61,86,70,85.12,67.27,84.08c1.62-.84,3.22-1.72,4.83-2.64s3.18-1.9,4.72-2.87C76.37,81.49,75.81,84.21,75.2,86.8ZM77.82,70c-2.87,2-5.88,3.89-9,5.7s-6.3,3.46-9.47,5c-3.15-1.49-6.31-3.14-9.44-5s-6.17-3.73-9-5.7c-.28-3.4-.45-6.95-.45-10.67s.17-7.27.45-10.67c2.87-2,5.87-3.89,9-5.7s6.29-3.46,9.44-4.95Q64.1,40.27,68.81,43c3.13,1.81,6.14,3.72,9,5.7.28,3.4.43,6.94.43,10.67S78.1,66.62,77.82,70ZM93,29c6.16,0,10.55,1.47,12,4,1.93,3.33-.21,9.86-5.6,17.06-1.14,1.54-2.41,3.07-3.78,4.61A113.93,113.93,0,0,0,84.1,45.06a115.37,115.37,0,0,0-2.52-14.78A55.64,55.64,0,0,1,93,29ZM84.73,53.83c2.24,1.81,4.35,3.66,6.32,5.52-2,1.86-4.08,3.71-6.32,5.52.08-1.81.12-3.66.12-5.52S84.81,55.64,84.73,53.83ZM105,85.73c-1.48,2.55-5.87,4-12.05,4a55,55,0,0,1-11.41-1.34A114.9,114.9,0,0,0,84.1,73.64a111.34,111.34,0,0,0,11.54-9.58c1.37,1.54,2.64,3.07,3.78,4.6C104.81,75.87,107,82.4,105,85.73Z" transform="translate(-6.38)"/><polygon class="cls-4" points="19.31 22.36 19.31 22.36 19.31 22.36 19.31 22.36"/><polygon class="cls-5" points="86.62 22.36 86.62 22.36 86.62 22.36 86.62 22.36"/><path class="cls-6" d="M59.35,50.85a8.5,8.5,0,1,0,8.5,8.5A8.49,8.49,0,0,0,59.35,50.85Z" transform="translate(-6.38)"/></g></g></g></svg>